<svg xmlns="http://www.w3.org/2000/svg" version="1.1" xmlns:xlink="http://www.w3.org/1999/xlink" xmlns:svgjs="http://svgjs.dev/svgjs" width="1440" height="560" preserveAspectRatio="none" viewBox="0 0 1440 560"><g mask="url(&quot;#SvgjsMask1138&quot;)" fill="none"><rect width="1440" height="560" x="0" y="0" fill="rgba(35, 120, 93, 1)"></rect><path d="M0,712.045C129.668,684.006,178.143,522.573,290.282,451.688C403.755,379.959,599.478,421.344,653.97,298.658C708.64,175.571,568.519,51.852,524.391,-75.396C490.013,-174.528,484.048,-281.231,423.224,-366.726C358.371,-457.884,271.486,-530.561,168.87,-575.12C56.99,-623.702,-75.418,-683.973,-185.264,-630.951C-296.233,-577.387,-283.408,-408.589,-365.853,-317.014C-450.897,-222.553,-613.966,-211.419,-666.976,-95.897C-722.575,25.267,-697.26,171.994,-646.885,295.422C-595.403,421.564,-498.527,523.719,-383.984,597.49C-269.368,671.308,-133.25,740.859,0,712.045" fill="#1c604a"></path><path d="M1440 1067.991C1535.667 1067.904 1626.409 1026.694 1703.66 970.2629999999999 1777.9560000000001 915.99 1847.152 845.054 1867.901 755.4159999999999 1887.48 670.833 1840.732 588.222 1810.973 506.662 1786.812 440.444 1753.079 381.73400000000004 1710.937 325.231 1665.58 264.419 1624.734 197.015 1556.029 164.84300000000002 1481.971 130.16500000000002 1398.073 130.92700000000002 1316.886 140.71300000000002 1223.541 151.96499999999997 1119.021 157.632 1053.825 225.377 988.052 293.721 990.732 399.578 977.385 493.486 964.06 587.244 939.7719999999999 684.399 976.162 771.828 1013.028 860.4 1095.171 919.1120000000001 1176.032 970.742 1256.7 1022.249 1344.291 1068.078 1440 1067.991" fill="#2a9070"></path></g><defs><mask id="SvgjsMask1138"><rect width="1440" height="560" fill="#ffffff"></rect></mask></defs></svg>